<svg xmlns="http://www.w3.org/2000/svg" xmlns:xlink="http://www.w3.org/1999/xlink" viewBox="0 0 140 40"><defs><linearGradient id="a" x1="318.92" y1="288.78" x2="365.6" y2="242.09" gradientTransform="translate(-326 -244.67)" gradientUnits="userSpaceOnUse"><stop offset="0" stop-color="#523c97"/><stop offset="1" stop-color="#846cb0"/></linearGradient></defs><rect y="4.02" width="32.53" height="33.49" fill="url(#a)"/><path d="M27.29,30.09a19.48,19.48,0,0,1-11.21,3.52A19.94,19.94,0,0,1,2.39,28.24c-.28-.26,0-.62.31-.42a27,27,0,0,0,13.7,3.74,26.62,26.62,0,0,0,10.43-2.2C27.36,29.14,27.79,29.69,27.29,30.09Z" fill="#f6be19"/><path d="M28.56,28.63c-.38-.51-2.56-.25-3.54-.13-.29,0-.34-.22-.07-.42,1.73-1.25,4.57-.89,4.9-.47s-.08,3.36-1.73,4.76c-.25.21-.48.09-.37-.19C28.12,31.22,28.94,29.12,28.56,28.63Z" fill="#f6be19"/><path d="M39.69,14.26h5.68a5,5,0,0,1,3.68,1.31A4,4,0,0,1,50.1,18.4v0a3.91,3.91,0,0,1-3,4l3.44,5H47.86l-3.13-4.57h-2.8v4.57H39.69V14.26Zm5.51,6.5c1.61,0,2.63-.86,2.63-2.19v0c0-1.41-1-2.17-2.64-2.17H41.93v4.4Z" fill="#5b4a99"/><path d="M51.7,22.49v0a5.11,5.11,0,0,1,5.14-5.18A5.05,5.05,0,0,1,62,22.41v0A5.09,5.09,0,0,1,56.8,27.6,5,5,0,0,1,51.7,22.49Zm8,0v0a3,3,0,0,0-3-3.19,2.94,2.94,0,0,0-2.9,3.15v0a3,3,0,0,0,2.94,3.17A2.94,2.94,0,0,0,59.75,22.49Z" fill="#5b4a99"/><path d="M63.9,23.78v-6.3h2.2v5.63c0,1.53.75,2.39,2.06,2.39a2.16,2.16,0,0,0,2.17-2.43V17.48h2.22v9.9H70.33V25.84a3.44,3.44,0,0,1-3,1.75C65.16,27.59,63.9,26.09,63.9,23.78Z" fill="#5b4a99"/><path d="M75.57,24.64V19.43H74.35V17.48h1.22V14.76h2.2v2.72h2.59v1.95H77.77v4.86c0,.88.44,1.23,1.18,1.23a3,3,0,0,0,1.37-.33V27a3.74,3.74,0,0,1-2,.51C76.71,27.55,75.57,26.82,75.57,24.64Z" fill="#5b4a99"/><path d="M81.61,22.47v0a4.86,4.86,0,0,1,4.7-5.16c3.06,0,4.6,2.48,4.6,5.33,0,.21,0,.41,0,.64H83.81a2.72,2.72,0,0,0,2.77,2.51,3.43,3.43,0,0,0,2.6-1.18l1.3,1.18a5,5,0,0,1-8.87-3.28Zm7.12-.73c-.15-1.47-1-2.61-2.44-2.61a2.64,2.64,0,0,0-2.5,2.61Z" fill="#5b4a99"/><path d="M97.7,25.6l1.38-1.67a4.79,4.79,0,0,0,3.28,1.57,2.26,2.26,0,0,0,2.53-2.26v0c0-1.33-1.09-2.18-2.64-2.18a5.33,5.33,0,0,0-2.35.59l-1.34-.92.36-6.43h7.63v2h-5.7l-.2,3.07a5.4,5.4,0,0,1,2-.37c2.48,0,4.44,1.35,4.44,4.12v0c0,2.68-1.91,4.44-4.73,4.44A6.43,6.43,0,0,1,97.7,25.6Z" fill="#5b4a99"/><path d="M108.7,25.3l1.56-1.5a4.1,4.1,0,0,0,3.35,1.72,2,2,0,0,0,2.21-2v0c0-1.29-1.15-2-2.94-2h-1L111.48,20l3.44-3.77h-5.51v-2h8.43V16l-3.55,3.75C116.22,20,118,21,118,23.41v0a4.13,4.13,0,0,1-4.46,4.16A6,6,0,0,1,108.7,25.3Z" fill="#5b4a99"/><path d="M11.49,22.21a5.3,5.3,0,0,0,1.63.32,1.52,1.52,0,0,0,1-.29,1.33,1.33,0,0,0,0-1.78,1.69,1.69,0,0,0-1.07-.28,10.05,10.05,0,0,0-1.34.09v-.61L11.91,17h3.14v.72H12.62l-.12,1.8a4.78,4.78,0,0,1,.84-.08,2,2,0,0,1,1.46.5,1.84,1.84,0,0,1,.52,1.39,1.79,1.79,0,0,1-.61,1.41,2.43,2.43,0,0,1-1.61.54,3.92,3.92,0,0,1-1.65-.36Z" fill="#fff"/><path d="M18.31,19.63h.15a1.86,1.86,0,0,1,1.37.46,1.63,1.63,0,0,1,.5,1.29,1.73,1.73,0,0,1-.61,1.38,2.55,2.55,0,0,1-1.64.52,4.05,4.05,0,0,1-1.6-.36v-.71a5.23,5.23,0,0,0,1.6.32,1.53,1.53,0,0,0,1-.3,1.08,1.08,0,0,0,.35-.86c0-.72-.43-1.07-1.31-1.07a7.87,7.87,0,0,0-.84,0v-.58l1.81-2H16.58V17h3.5v.7Z" fill="#fff"/><path d="M15.75,28a.39.39,0,0,1-.21-.06,13.35,13.35,0,0,0-4.38-1.72c-.88-.16-3.75-.86-3.75-3a4.52,4.52,0,0,1,.83-2.43,6.83,6.83,0,0,0,1.13-3.53,6.39,6.39,0,0,0-1-3.41.42.42,0,0,1,0-.5l.67-.86a.41.41,0,0,1,.53-.11,5.51,5.51,0,0,0,2.82.8,5,5,0,0,0,3.08-1,.39.39,0,0,1,.48,0,5.07,5.07,0,0,0,3.08,1,5.65,5.65,0,0,0,2.83-.8.42.42,0,0,1,.53.1l.67.86a.46.46,0,0,1,0,.5,6.43,6.43,0,0,0-1,3.41,6.81,6.81,0,0,0,1.13,3.53,4.64,4.64,0,0,1,.83,2.44c0,2.14-2.87,2.85-3.75,3A13.81,13.81,0,0,0,16,28,.4.4,0,0,1,15.75,28ZM9.24,13.64a7.19,7.19,0,0,1,1,3.6A7.54,7.54,0,0,1,9,21.2a3.92,3.92,0,0,0-.71,2c0,1.53,2.55,2.08,3.06,2.18a14.32,14.32,0,0,1,4.44,1.72,14.32,14.32,0,0,1,4.44-1.72c.51-.1,3.06-.65,3.06-2.18a3.83,3.83,0,0,0-.71-2,7.63,7.63,0,0,1-1.25-4,7.31,7.31,0,0,1,1-3.6L22,13.3a6.27,6.27,0,0,1-2.92.74,5.84,5.84,0,0,1-3.34-1,5.89,5.89,0,0,1-3.34,1,6.28,6.28,0,0,1-2.93-.74Z" fill="#fff"/><path d="M15.75,30.62a.4.4,0,0,1-.26-.1,12.56,12.56,0,0,0-4.7-2.15c-3.43-.63-5.48-2.58-5.48-5.15a6.71,6.71,0,0,1,1.1-3.53,4.71,4.71,0,0,0,.84-2.44A4.69,4.69,0,0,0,5.73,14a.43.43,0,0,1-.09-.6l0,0s2.45-3.06,3-3.85A.44.44,0,0,1,9,9.31a.4.4,0,0,1,.34.14A4.25,4.25,0,0,0,12.41,11a3.59,3.59,0,0,0,3-1.71A.43.43,0,0,1,16,9.25a.09.09,0,0,1,.06.06,3.55,3.55,0,0,0,3,1.71,4.25,4.25,0,0,0,3.07-1.57.41.41,0,0,1,.34-.14.48.48,0,0,1,.33.18c.55.79,3,3.82,3,3.85a.4.4,0,0,1,.1.33.43.43,0,0,1-.16.3,4.73,4.73,0,0,0-1.52,3.28,4.9,4.9,0,0,0,.84,2.44,6.81,6.81,0,0,1,1.11,3.53c0,2.57-2.05,4.52-5.49,5.15A12.44,12.44,0,0,0,16,30.52.43.43,0,0,1,15.75,30.62Zm-9.14-17a5.48,5.48,0,0,1,1.52,3.67,5.68,5.68,0,0,1-1,2.89,5.74,5.74,0,0,0-1,3.07c0,3.15,3.64,4.07,4.76,4.27a12.84,12.84,0,0,1,4.81,2.13,12.8,12.8,0,0,1,4.8-2.13c1.12-.2,4.77-1.12,4.77-4.27a5.81,5.81,0,0,0-1-3.07,5.78,5.78,0,0,1-1-2.89,5.53,5.53,0,0,1,1.52-3.67c-.54-.68-1.81-2.27-2.47-3.15a5,5,0,0,1-3.34,1.49,4.21,4.21,0,0,1-3.34-1.66,4.22,4.22,0,0,1-3.34,1.66,4.94,4.94,0,0,1-3.34-1.49C8.44,11.32,7.16,12.91,6.61,13.59Z" fill="#fff"/></svg>