<?xml version="1.0" encoding="utf-8"?>
<!-- Generator: Adobe Illustrator 21.0.2, SVG Export Plug-In . SVG Version: 6.00 Build 0)  -->
<svg version="1.1" id="Layer_1" xmlns="http://www.w3.org/2000/svg" xmlns:xlink="http://www.w3.org/1999/xlink" x="0px" y="0px"
	 viewBox="0 0 80.7 80.7" style="enable-background:new 0 0 80.7 80.7;" xml:space="preserve">
<style type="text/css">
	.st0{fill:#E2E2E2;}
	.st1{fill:#F68D11;}
</style>
<circle class="st0" cx="40.4" cy="40.4" r="40.4"/>
<path id="path14" class="st1" d="M42.9,35.7l-7.1-2.4V23l7.1,2.1V35.7"/>
<path id="path16" class="st1" d="M44.7,25.1l7.1-2.1v10.3l-7.1,2.4V25.1"/>
<path id="path18" class="st1" d="M50.4,21.9l-6.6-2.1l-6.6,2.1l6.6,1.8L50.4,21.9"/>
<path id="path20" class="st1" d="M60.8,35.7l-7.1-2.4V23l7.1,2.1V35.7"/>
<path id="path22" class="st1" d="M62.7,25.1l7.1-2.1v10.3l-7.1,2.4L62.7,25.1"/>
<path id="path24" class="st1" d="M68.4,21.9l-6.6-2.1l-6.6,2.1l6.6,1.8L68.4,21.9"/>
<path id="path26" class="st1" d="M16,40.2l-7.1-2.1v10.3l7.1,2.4V40.2"/>
<path id="path28" class="st1" d="M17.8,40.2l7.1-2.1v10.3l-7.1,2.4V40.2"/>
<path id="path30" class="st1" d="M23.5,36.9l-6.6-2.1l-6.6,2.1l6.6,1.8L23.5,36.9"/>
<path id="path32" class="st1" d="M33.9,50.7l-7.1-2.4V38.1l7.1,2.1V50.7"/>
<path id="path34" class="st1" d="M35.8,40.2l7.1-2.1v10.3l-7.1,2.4V40.2"/>
<path id="path36" class="st1" d="M41.4,36.9l-6.6-2.1l-6.6,2.1l6.6,1.8L41.4,36.9"/>
<path id="path38" class="st1" d="M24.9,65.8l-7.1-2.4V53.1l7.1,2.1V65.8"/>
<path id="path40" class="st1" d="M26.8,55.2l7.1-2.1v10.3l-7.1,2.4L26.8,55.2"/>
<path id="path42" class="st1" d="M32.5,52l-6.6-2.1L19.3,52l6.6,1.8L32.5,52"/>
</svg>
