<?xml version="1.0" encoding="utf-8"?>
<!-- Generator: Adobe Illustrator 26.0.2, SVG Export Plug-In . SVG Version: 6.00 Build 0)  -->
<svg version="1.1" id="Layer_1" xmlns="http://www.w3.org/2000/svg" xmlns:xlink="http://www.w3.org/1999/xlink" x="0px" y="0px"
	 viewBox="0 0 90 30" style="enable-background:new 0 0 90 30;" xml:space="preserve">
<style type="text/css">
	.st0{fill:#252F3E;}
	.st1{fill-rule:evenodd;clip-rule:evenodd;fill:#FF9900;}
	.st2{fill:#5F6368;}
</style>
	<path class="st0" d="M8.7,13c0,0.3,0.1,0.6,0.1,0.9c0.1,0.3,0.2,0.5,0.4,0.7c0.1,0.1,0.1,0.1,0.1,0.2c0,0.1-0.1,0.2-0.2,0.3
	l-0.7,0.4c-0.1,0.1-0.2,0.1-0.3,0.1c-0.1,0-0.2-0.1-0.3-0.1c-0.2-0.2-0.3-0.3-0.4-0.6c-0.1-0.2-0.2-0.4-0.3-0.6
	c-0.7,0.9-1.9,1.5-3.1,1.5c-0.8,0.1-1.5-0.2-2.1-0.7c-0.5-0.5-0.8-1.3-0.7-2c0-0.8,0.3-1.6,1-2.1c0.7-0.6,1.6-0.8,2.6-0.8
	c0.4,0,0.7,0,1.1,0.1c0.4,0.1,0.8,0.1,1.2,0.2V9.8C7.2,9.2,7,8.6,6.6,8.1C6.1,7.8,5.5,7.6,4.9,7.6c-0.4,0-0.7,0.1-1.1,0.2
	C3.4,7.8,3,8,2.6,8.1C2.5,8.2,2.4,8.2,2.3,8.2H2.1C1.9,8.3,1.8,8.1,1.8,8V7.5c0-0.2,0-0.3,0.1-0.4C2,7,2.1,6.9,2.2,6.9
	C2.6,6.7,3,6.5,3.5,6.4C4,6.2,4.5,6.2,5.1,6.2C6.1,6.1,7,6.4,7.8,7c0.6,0.7,1,1.6,0.9,2.6V13z M4.5,14.5c0.4,0,0.7-0.1,1.1-0.2
	c0.4-0.1,0.7-0.4,0.9-0.7c0.1-0.2,0.3-0.4,0.4-0.6C7,12.7,7,12.4,7,12.1v-0.4c-0.3-0.1-0.7-0.1-1-0.1c-0.3-0.1-0.7-0.1-1-0.1
	c-0.5,0-1.1,0.1-1.5,0.4C3.2,12.2,3,12.6,3,13c0,0.4,0.1,0.8,0.4,1.1C3.7,14.4,4.1,14.6,4.5,14.5z M12.9,15.6c-0.2,0-0.3,0-0.4-0.1
	c-0.1-0.1-0.2-0.3-0.2-0.4l-2.5-8c0-0.1-0.1-0.3-0.1-0.4c0-0.2,0.1-0.3,0.2-0.3h1c0.2,0,0.4,0,0.4,0.1c0.1,0.1,0.2,0.3,0.2,0.4
	l1.8,6.9L15,6.9c0-0.2,0.1-0.3,0.2-0.4c0,0.1,0.1,0,0.3,0h0.8c0.2,0,0.4,0,0.4,0.1C16.9,6.6,16.9,6.8,17,7l1.6,7l1.7-7
	c0.1-0.2,0.2-0.3,0.3-0.4c0.1-0.1,0.2-0.1,0.4-0.1h0.9c0.1,0,0.3,0.1,0.3,0.2c0,0,0,0,0,0v0.2c0,0.1,0,0.2-0.1,0.3l-2.5,8
	c0,0.2-0.1,0.3-0.2,0.4c-0.1,0.1-0.2,0.1-0.4,0.1h-0.9c-0.2,0-0.4,0-0.4-0.1c-0.1-0.1-0.2-0.3-0.2-0.4l-1.6-6.7l-1.6,6.7
	c0,0.2-0.1,0.3-0.2,0.4c-0.1,0.1-0.2,0.1-0.4,0.1L12.9,15.6L12.9,15.6z M26.1,15.9c-0.5,0-1.1-0.1-1.6-0.2c-0.4-0.1-0.8-0.2-1.2-0.4
	C23.2,15.2,23,15,23,14.9c-0.1-0.1-0.1-0.2-0.1-0.3v-0.5c0-0.2,0.1-0.3,0.2-0.3h0.2c0.1,0,0.1,0.1,0.3,0.1c0.4,0.2,0.8,0.3,1.2,0.4
	c0.4,0.1,0.8,0.1,1.2,0.1c0.5,0,1.1-0.1,1.5-0.4c0.3-0.2,0.5-0.6,0.5-1c0-0.3-0.1-0.5-0.3-0.7c-0.3-0.3-0.6-0.4-1-0.5l-1.5-0.4
	c-0.6-0.2-1.2-0.5-1.7-1c-0.4-0.4-0.5-1-0.5-1.5c0-0.4,0.1-0.8,0.3-1.2c0.2-0.3,0.4-0.6,0.7-0.9c0.3-0.3,0.7-0.4,1.1-0.5
	c0.4-0.1,0.9-0.2,1.3-0.2c0.2,0,0.4,0,0.6,0.1c0.2,0,0.4,0.1,0.7,0.2c0.2,0.1,0.4,0.1,0.6,0.1c0.2,0,0.3,0.1,0.4,0.2
	C29,6.8,29.1,6.9,29.2,7c0.1,0,0.1,0.1,0.1,0.2v0.5c0,0.2-0.1,0.4-0.2,0.4c-0.1,0-0.3-0.1-0.4-0.1c-0.6-0.3-1.3-0.5-2-0.4
	c-0.5,0-1,0.1-1.4,0.3c-0.3,0.2-0.5,0.6-0.5,1c0,0.3,0.1,0.5,0.3,0.7c0.3,0.3,0.7,0.5,1.2,0.6l1.5,0.4c0.6,0.1,1.2,0.5,1.6,1
	c0.3,0.4,0.5,0.9,0.5,1.4c0,0.4-0.1,0.8-0.3,1.2c-0.2,0.3-0.4,0.6-0.7,0.9c-0.3,0.3-0.7,0.5-1.2,0.6C27.1,15.8,26.6,15.9,26.1,15.9z
	"/>
	<path class="st1" d="M28.1,20.9c-3.7,2.5-8.1,3.9-12.6,3.9c-5.7,0-11.1-2-15.4-5.8c-0.3-0.3,0-0.7,0.4-0.4c4.7,2.7,10,4.1,15.4,4.1
	c4,0,8.1-0.9,11.8-2.5C28.1,19.9,28.6,20.5,28.1,20.9z"/>
	<path class="st1" d="M29.5,19.3c-0.4-0.6-2.9-0.3-4-0.1c-0.4,0.1-0.4-0.2-0.1-0.4c2-1.4,5.1-1,5.5-0.5s-0.1,3.7-1.9,5.2
	c-0.3,0.2-0.5,0.1-0.4-0.2C29,22.2,29.9,19.8,29.5,19.3z"/>
	<g>
	<path class="st2" d="M39.9,14.9c-0.6,0-1.1-0.2-1.6-0.6c-0.4-0.4-0.6-1-0.6-1.5c0-0.6,0.2-1.2,0.7-1.6c0.6-0.4,1.2-0.6,2-0.6
		c0.7,0,1.4,0.1,2.1,0.3V9.6c0-0.5-0.1-0.9-0.5-1.3C41.6,8.1,41.1,8,40.7,8c-0.7,0-1.4,0.1-2.1,0.4c-0.1,0-0.1,0-0.2,0
		c-0.1,0-0.1-0.1-0.1-0.2V8c0-0.1,0-0.1,0-0.2c0,0,0.1-0.1,0.2-0.1c0.8-0.3,1.6-0.4,2.4-0.4c0.7-0.1,1.3,0.1,1.9,0.5
		c0.4,0.4,0.7,1,0.6,1.6v5.1c0,0.1-0.1,0.2-0.2,0.2c0,0,0,0-0.1,0h-0.3c-0.1,0-0.2-0.1-0.2-0.2c0,0,0,0,0,0l-0.1-0.6
		C41.7,14.5,40.8,14.8,39.9,14.9z M40,14.1c0.4,0,0.8-0.1,1.2-0.2c0.4-0.2,0.9-0.4,1.3-0.6v-1.8c-0.6-0.2-1.2-0.3-1.9-0.3
		c-1.3,0-2,0.5-2,1.6c0,0.4,0.1,0.7,0.3,1C39.2,14,39.6,14.1,40,14.1z"/>
		<path class="st2" d="M45.7,14.7c-0.1,0-0.2-0.1-0.2-0.2c0,0,0,0,0-0.1V7.7c0-0.1,0.1-0.2,0.2-0.2c0,0,0,0,0,0H46
		c0.1,0,0.2,0.1,0.2,0.2c0,0,0,0,0,0l0.1,0.6c0.4-0.3,0.9-0.6,1.4-0.8c0.4-0.2,0.9-0.3,1.4-0.3c0.8-0.1,1.5,0.4,1.8,1.1
		c0.4-0.3,0.9-0.6,1.4-0.8c0.5-0.2,1-0.3,1.5-0.3c0.6,0,1.1,0.2,1.5,0.6c0.4,0.5,0.6,1,0.5,1.6v5c0,0.1-0.1,0.2-0.2,0.2h-0.4
		c-0.1,0-0.2-0.1-0.2-0.2c0,0,0,0,0,0V9.8c0-0.5-0.1-1-0.3-1.4c-0.3-0.3-0.6-0.4-1-0.4c-0.9,0-1.9,0.3-2.6,0.9c0,0.2,0,0.5,0,0.7
		v4.9c0,0.1-0.1,0.2-0.2,0.2h-0.4c-0.1,0-0.2-0.1-0.2-0.2c0,0,0,0,0,0V9.8c0-0.5-0.1-1-0.3-1.4C49.7,8.1,49.3,8,48.9,8
		c-0.9,0-1.8,0.3-2.6,0.9v5.6c0,0.1-0.1,0.2-0.2,0.2L45.7,14.7z"/>
		<path class="st2" d="M59.8,14.9c-0.6,0-1.2-0.2-1.6-0.6c-0.4-0.4-0.6-1-0.6-1.5c0-0.6,0.2-1.2,0.7-1.6c0.6-0.4,1.2-0.6,2-0.6
		c0.7,0,1.4,0.1,2.1,0.3V9.6c0-0.5-0.1-0.9-0.4-1.3C61.5,8.1,61,8,60.5,8c-0.7,0-1.4,0.1-2.1,0.4h-0.2c-0.1,0-0.2-0.1-0.2-0.2V8
		c0-0.1,0-0.1,0-0.2c0,0,0.1-0.1,0.1-0.1c0.8-0.3,1.6-0.4,2.4-0.4c0.7-0.1,1.3,0.1,1.9,0.5c0.4,0.4,0.7,1,0.6,1.6v5.1
		c0,0.1-0.1,0.2-0.2,0.2c0,0,0,0-0.1,0h-0.3c-0.1,0-0.2-0.1-0.2-0.2c0,0,0,0,0,0l-0.1-0.6C61.6,14.5,60.7,14.8,59.8,14.9z
		 M59.9,14.1c0.4,0,0.8-0.1,1.1-0.2c0.4-0.2,0.9-0.4,1.3-0.6v-1.8c-0.6-0.2-1.2-0.3-1.9-0.3c-1.3,0-2,0.5-2,1.6c0,0.4,0.1,0.7,0.4,1
		C59.1,14,59.5,14.2,59.9,14.1z"/>
		<path class="st2" d="M65,14.7c-0.1,0-0.2-0.1-0.2-0.2v-0.3c0-0.1,0-0.1,0-0.2c0-0.1,0.1-0.2,0.1-0.2l4.4-5.6h-4.1
		C65,8.2,65,8.1,65,8V7.7c0-0.1,0.1-0.2,0.2-0.2c0,0,0,0,0,0h4.9c0.1,0,0.2,0.1,0.2,0.2c0,0,0,0,0,0.1V8c0,0.2-0.1,0.3-0.2,0.4
		L65.7,14h4.4c0.1,0,0.2,0.1,0.2,0.2v0.3c0,0.1-0.1,0.2-0.2,0.2L65,14.7z"/>
		<path class="st2" d="M74.8,14.9c-0.9,0.1-1.8-0.3-2.5-1c-0.6-0.8-0.9-1.8-0.9-2.8c-0.1-1,0.3-2,0.9-2.8c1.4-1.3,3.6-1.3,4.9,0
		c0.6,0.8,0.9,1.8,0.9,2.8c0.1,1-0.3,2-0.9,2.8C76.7,14.6,75.7,15,74.8,14.9z M74.8,14.2c1.7,0,2.5-1,2.5-3.1S76.5,8,74.8,8
		s-2.5,1-2.5,3.1S73.2,14.2,74.8,14.2z"/>
		<path class="st2" d="M80.2,14.7c-0.1,0-0.2-0.1-0.2-0.2c0,0,0,0,0,0V7.7c0-0.1,0.1-0.2,0.2-0.2c0,0,0,0,0,0h0.3
		c0.1,0,0.2,0.1,0.2,0.2c0,0,0,0,0,0l0.1,0.6c0.5-0.3,1-0.6,1.5-0.8c0.5-0.2,1-0.3,1.5-0.3c0.6,0,1.2,0.2,1.6,0.6
		c0.4,0.4,0.6,1,0.6,1.6v5c0,0.1-0.1,0.2-0.2,0.2c0,0,0,0-0.1,0h-0.4c-0.1,0-0.2-0.1-0.2-0.2c0,0,0,0,0-0.1V9.8c0-0.5-0.1-1-0.4-1.4
		C84.5,8.1,84.1,8,83.7,8c-1,0-2,0.3-2.8,0.9v5.6c0,0.1-0.1,0.2-0.2,0.2L80.2,14.7z"/>
</g>
	<g>
	<path class="st2" d="M39.3,22.4c-0.1,0-0.2-0.1-0.2-0.1l-1.4-4.1c0,0,0-0.1,0-0.1c0,0,0-0.1,0.1-0.1h0.3c0.1,0,0.1,0,0.2,0.1
		l1.2,3.8l1-3.8c0-0.1,0.1-0.1,0.2-0.1H41c0.1,0,0.2,0.1,0.2,0.1l1.1,3.8l1.3-3.8c0-0.1,0.1-0.1,0.2-0.1h0.3c0.1,0,0.1,0,0.1,0.1
		c0,0,0,0.1,0,0.1l-1.5,4.1c0,0.1-0.1,0.1-0.2,0.1h-0.3c-0.1,0-0.2,0-0.2-0.1l-1.1-3.8l-1.1,3.8c0,0.1-0.1,0.1-0.2,0.1L39.3,22.4z"
	/>
		<path class="st2" d="M46.8,22.5c-0.6,0-1.2-0.2-1.6-0.6c-0.4-0.5-0.6-1.1-0.5-1.8c0-0.6,0.2-1.2,0.5-1.7c0.4-0.4,0.9-0.7,1.5-0.6
		c0.5,0,0.9,0.1,1.2,0.5c0.3,0.4,0.5,0.8,0.4,1.3c0,0.2,0,0.4,0,0.5c0,0.1-0.1,0.1-0.1,0.1c0,0,0,0,0,0h-3c0,0.5,0.1,1,0.4,1.4
		c0.3,0.3,0.8,0.5,1.2,0.4c0.4,0,0.8-0.1,1.2-0.2h0.2c0,0,0,0,0.1,0c0,0,0,0.1,0,0.1V22c0,0.1,0,0.2-0.1,0.2
		C47.7,22.4,47.2,22.5,46.8,22.5z M47.8,19.8c0-0.1,0-0.2,0-0.3c0-0.4-0.1-0.7-0.3-1c-0.2-0.2-0.6-0.4-0.9-0.3
		c-0.9,0-1.4,0.5-1.5,1.6L47.8,19.8z"/>
		<path class="st2" d="M51.5,22.5c-0.6,0-1.1-0.2-1.5-0.6v0.4c0,0.1-0.1,0.1-0.1,0.1c0,0,0,0,0,0h-0.2c-0.1,0-0.1,0-0.1-0.1
		c0,0,0,0,0,0v-6.3c0-0.1,0-0.1,0.1-0.1h0.2c0.1,0,0.1,0,0.1,0.1v2.4c0.2-0.2,0.5-0.3,0.8-0.5c0.3-0.1,0.5-0.2,0.8-0.1
		c0.5,0,1,0.2,1.4,0.6c0.4,0.5,0.5,1.1,0.5,1.7c0,0.6-0.2,1.2-0.5,1.7C52.5,22.3,52,22.5,51.5,22.5z M51.4,22c0.4,0,0.8-0.1,1.1-0.5
		c0.3-0.4,0.4-0.9,0.4-1.4c0-1.2-0.5-1.9-1.4-1.9c-0.2,0-0.5,0-0.7,0.1c-0.3,0.1-0.5,0.2-0.7,0.4v2.6c0.2,0.2,0.4,0.3,0.7,0.5
		C50.9,22,51.1,22,51.4,22z"/>
		<path class="st2" d="M58,22.5c-0.2,0-0.5,0-0.7-0.1c-0.2,0-0.4-0.1-0.6-0.2c-0.1,0-0.1-0.1-0.1-0.2v-0.1c0-0.1,0-0.1,0.1-0.1h0.1
		l0.2,0.1c0.3,0.1,0.7,0.2,1,0.1c0.3,0,0.6-0.1,0.8-0.2c0.2-0.2,0.3-0.4,0.3-0.6c0-0.1-0.1-0.3-0.2-0.4c-0.2-0.1-0.4-0.3-0.6-0.3
		l-0.8-0.3c-0.6-0.1-1-0.6-1-1.2c0-0.3,0.1-0.7,0.4-0.9c0.3-0.2,0.7-0.4,1.1-0.3c0.4,0,0.8,0.1,1.2,0.2c0.1,0,0.1,0.1,0.1,0.2v0.1
		c0,0.1,0,0.1-0.1,0.1l-0.2,0c-0.3-0.1-0.7-0.1-1-0.1c-0.3,0-0.5,0.1-0.7,0.2c-0.2,0.1-0.3,0.4-0.2,0.6c0,0.2,0.1,0.3,0.2,0.5
		c0.2,0.2,0.4,0.3,0.7,0.4l0.7,0.3c0.3,0.1,0.5,0.2,0.7,0.5c0.2,0.2,0.2,0.4,0.2,0.7c0,0.4-0.1,0.7-0.4,1
		C58.8,22.4,58.4,22.5,58,22.5z"/>
		<path class="st2" d="M62.5,22.5c-0.6,0-1.2-0.2-1.6-0.6c-0.4-0.5-0.6-1.1-0.5-1.8c0-0.6,0.2-1.2,0.5-1.7c0.4-0.4,0.9-0.6,1.5-0.6
		c0.5,0,0.9,0.1,1.2,0.5c0.3,0.4,0.5,0.8,0.4,1.3c0,0.2,0,0.4,0,0.5c0,0.1-0.1,0.1-0.1,0.1c0,0,0,0,0,0h-3c0,0.5,0.1,1,0.4,1.4
		c0.3,0.3,0.8,0.5,1.2,0.4c0.4,0,0.8-0.1,1.2-0.2h0.2c0,0,0,0,0.1,0c0,0,0,0.1,0,0.1V22c0,0.1,0,0.2-0.1,0.2
		C63.5,22.4,63,22.5,62.5,22.5z M63.6,19.8v-0.3c0-0.4-0.1-0.7-0.3-1c-0.2-0.2-0.6-0.4-0.9-0.3c-0.9,0-1.4,0.5-1.5,1.6L63.6,19.8z"
		/>
		<path class="st2" d="M65.3,22.4c-0.1,0-0.1,0-0.1-0.1c0,0,0,0,0,0V18c0-0.1,0-0.1,0.1-0.1c0,0,0,0,0,0h0.2c0.1,0,0.2,0,0.2,0.1v0.5
		c0.2-0.2,0.4-0.4,0.7-0.5c0.2-0.1,0.5-0.2,0.7-0.1h0.2c0.1,0,0.1,0,0.1,0.1c0,0,0,0,0,0v0.2c0,0,0,0,0,0.1c0,0,0,0-0.1,0H67
		c-0.2,0-0.5,0-0.7,0.1c-0.2,0.1-0.4,0.3-0.6,0.5v3.3c0,0.1,0,0.1-0.1,0.1c0,0,0,0,0,0L65.3,22.4z"/>
		<path class="st2" d="M69.8,22.4c-0.1,0-0.1-0.1-0.2-0.1L68,18.1c0,0,0-0.1,0-0.1c0-0.1,0-0.1,0.1-0.1c0,0,0,0,0,0h0.3
		c0.1,0,0.1,0,0.2,0.1l1.5,3.8l1.5-3.9c0-0.1,0.1-0.1,0.2-0.1h0.3c0.1,0,0.1,0,0.1,0.1c0,0,0,0,0,0c0,0,0,0.1,0,0.1l-1.7,4.1
		c0,0.1-0.1,0.1-0.2,0.1H69.8z"/>
		<path class="st2" d="M73.1,17c-0.1,0-0.2,0-0.3-0.1c-0.1-0.1-0.1-0.2-0.1-0.3c0-0.1,0-0.2,0.1-0.3c0.2-0.1,0.4-0.1,0.6,0
		c0.1,0.1,0.1,0.2,0.1,0.3c0,0.1,0,0.2-0.1,0.3C73.3,17,73.2,17,73.1,17z M73,22.4c-0.1,0-0.1,0-0.1-0.1V18c0-0.1,0-0.1,0.1-0.1h0.2
		c0.1,0,0.1,0,0.1,0.1c0,0,0,0,0,0v4.2c0,0.1,0,0.1-0.1,0.1c0,0,0,0,0,0H73z"/>
		<path class="st2" d="M76.7,22.5c-0.6,0-1.2-0.2-1.6-0.6c-0.4-0.5-0.6-1.1-0.5-1.7c0-0.6,0.1-1.2,0.5-1.7c0.4-0.4,1-0.6,1.6-0.6
		c0.3,0,0.6,0.1,0.9,0.2c0.1,0,0.1,0.1,0.1,0.2v0.1c0,0.1,0,0.1-0.1,0.1h-0.1h-0.1c-0.2-0.1-0.5-0.1-0.7-0.1c-0.4,0-0.9,0.1-1.2,0.4
		c-0.3,0.4-0.4,0.9-0.4,1.4v0.1c0,0.5,0.1,1,0.4,1.4c0.3,0.3,0.8,0.5,1.2,0.4c0.3,0,0.5,0,0.8-0.1h0.1h0.1c0.1,0,0.1,0,0.1,0.1
		c0,0,0,0,0,0v0.1c0,0.1,0,0.1-0.1,0.2C77.3,22.5,77,22.5,76.7,22.5z"/>
		<path class="st2" d="M80.5,22.5c-0.6,0-1.2-0.2-1.6-0.6c-0.4-0.5-0.6-1.1-0.5-1.8c0-0.6,0.2-1.2,0.5-1.7c0.4-0.4,0.9-0.6,1.5-0.6
		c0.5,0,0.9,0.1,1.2,0.5c0.3,0.4,0.5,0.8,0.4,1.3c0,0.2,0,0.4,0,0.5c0,0.1-0.1,0.1-0.1,0.1c0,0,0,0,0,0h-3c0,0.5,0.1,1,0.4,1.4
		c0.3,0.3,0.8,0.5,1.2,0.4c0.4,0,0.8-0.1,1.2-0.2H82c0,0,0,0,0.1,0c0,0,0,0.1,0,0.1V22c0,0.1,0,0.2-0.1,0.2
		C81.5,22.4,81,22.5,80.5,22.5z M81.6,19.8c0-0.1,0-0.2,0-0.3c0-0.4-0.1-0.7-0.3-1c-0.2-0.2-0.6-0.4-0.9-0.3c-0.9,0-1.4,0.5-1.5,1.6
		L81.6,19.8z"/>
		<path class="st2" d="M84.3,22.5c-0.2,0-0.5,0-0.7-0.1c-0.2,0-0.4-0.1-0.6-0.2c-0.1,0-0.1-0.1-0.1-0.2v-0.1c0-0.1,0-0.1,0.1-0.1h0.1
		l0.2,0.1c0.3,0.1,0.7,0.1,1,0.1c0.3,0,0.6-0.1,0.8-0.2c0.2-0.2,0.3-0.4,0.3-0.6c0-0.2-0.1-0.3-0.2-0.4c-0.2-0.1-0.4-0.3-0.6-0.3
		l-0.8-0.3C83.4,20,83,19.5,83,19c0-0.3,0.1-0.7,0.4-0.9c0.3-0.2,0.7-0.4,1.1-0.3c0.4,0,0.8,0.1,1.2,0.2c0.1,0,0.1,0.1,0.1,0.2v0.1
		c0,0.1,0,0.1-0.1,0.1l-0.2,0c-0.3-0.1-0.7-0.1-1-0.1c-0.3,0-0.5,0.1-0.7,0.2c-0.2,0.1-0.3,0.4-0.2,0.6c0,0.2,0.1,0.3,0.2,0.5
		c0.2,0.2,0.4,0.3,0.7,0.4l0.7,0.3c0.3,0.1,0.5,0.2,0.7,0.5c0.2,0.2,0.2,0.4,0.2,0.7c0,0.4-0.1,0.7-0.4,1
		C85.2,22.4,84.8,22.5,84.3,22.5z"/>
</g>
</svg>
