<svg xmlns="http://www.w3.org/2000/svg" viewBox="0 0 140 40"><path d="M12.54,16.29a5.26,5.26,0,0,0,.21,1.38,4.71,4.71,0,0,0,.53,1,.41.41,0,0,1,.1.32.54.54,0,0,1-.31.42l-1,.64a.68.68,0,0,1-.43.1.79.79,0,0,1-.42-.21,1.93,1.93,0,0,1-.53-.74,6.55,6.55,0,0,1-.42-.84,5.61,5.61,0,0,1-4.44,2.11,3.92,3.92,0,0,1-3-1.06,3.82,3.82,0,0,1-1.06-2.85,3.69,3.69,0,0,1,1.38-3.07,5.78,5.78,0,0,1,3.7-1.16,7.69,7.69,0,0,1,1.58.11l1.69.32V11.75a3.19,3.19,0,0,0-.74-2.43A3.66,3.66,0,0,0,7,8.58a7.79,7.79,0,0,0-1.58.21,7.44,7.44,0,0,0-1.69.53,1.52,1.52,0,0,1-.53.1H3c-.32.11-.43-.1-.43-.31V8.37c0-.22,0-.43.11-.53a1.39,1.39,0,0,1,.42-.32A7.76,7.76,0,0,1,5,6.78a8.3,8.3,0,0,1,2.33-.32,5.76,5.76,0,0,1,3.91,1.17,4.87,4.87,0,0,1,1.27,3.7v5Zm-6,2.22A4.74,4.74,0,0,0,8.1,18.2a3.18,3.18,0,0,0,1.37-1,3.92,3.92,0,0,0,.53-.95A4.17,4.17,0,0,0,10.11,15v-.63a5.26,5.26,0,0,0-1.38-.21,6.24,6.24,0,0,0-1.37-.11,3.43,3.43,0,0,0-2.22.64A2,2,0,0,0,4.4,16.4,2.15,2.15,0,0,0,4.93,18C5.25,18.41,5.77,18.51,6.51,18.51Zm12,1.59c-.32,0-.42,0-.53-.11a1.72,1.72,0,0,1-.31-.63L14.12,7.84A2,2,0,0,1,14,7.2c0-.21.1-.42.31-.42h1.48c.32,0,.53,0,.64.11a1.77,1.77,0,0,1,.32.63l2.53,9.94,2.33-9.94a1.64,1.64,0,0,1,.31-.63c0,.1.22,0,.43,0h1.16c.32,0,.53,0,.63.1a1.77,1.77,0,0,1,.32.64l2.33,10,2.53-10c.21-.32.32-.53.42-.64s.32-.1.64-.1h1.27a.38.38,0,0,1,.42.42v.21a.76.76,0,0,1-.11.42L28.39,19.46a1.62,1.62,0,0,1-.32.64.8.8,0,0,1-.52.1H26.28c-.32,0-.53,0-.64-.1a.92.92,0,0,1-.31-.64L23,9.85l-2.32,9.61a1.94,1.94,0,0,1-.32.64c-.11.1-.32.1-.64.1H18.56Zm19.13.42a8.83,8.83,0,0,1-2.32-.32,7,7,0,0,1-1.69-.63c-.22-.11-.43-.32-.43-.42a.68.68,0,0,1-.1-.43V18c0-.31.1-.42.31-.42h.32c.11,0,.21.11.42.11a8.36,8.36,0,0,0,1.69.53,11.17,11.17,0,0,0,1.8.21,4.28,4.28,0,0,0,2.22-.53,1.55,1.55,0,0,0,.74-1.38,1.36,1.36,0,0,0-.42-1.05,3.17,3.17,0,0,0-1.48-.74l-2.22-.64a4.92,4.92,0,0,1-2.43-1.48,3.3,3.3,0,0,1-.74-2.22,3.08,3.08,0,0,1,.42-1.69,6.16,6.16,0,0,1,1.06-1.26,3.57,3.57,0,0,1,1.58-.74,5.68,5.68,0,0,1,1.91-.22,2.84,2.84,0,0,1,1,.11,3.32,3.32,0,0,1,.95.21c.31.11.63.11.84.21a1.77,1.77,0,0,1,.64.32.86.86,0,0,1,.42.42c.11,0,.11.11.11.32v.74c0,.32-.11.53-.32.53a1.88,1.88,0,0,1-.53-.21,6.22,6.22,0,0,0-2.85-.64,3.85,3.85,0,0,0-2,.42,1.44,1.44,0,0,0-.74,1.38,1.36,1.36,0,0,0,.42,1.06,5.19,5.19,0,0,0,1.69.84l2.12.64a4.21,4.21,0,0,1,2.32,1.47,3.69,3.69,0,0,1,.74,2.12,2.86,2.86,0,0,1-.42,1.69,4.35,4.35,0,0,1-1.06,1.27,4.26,4.26,0,0,1-1.69.84A7.54,7.54,0,0,1,37.69,20.52Z" fill="#fff"/><path d="M40.54,27.81c-4.86,3.6-12,5.6-18.17,5.6A32.92,32.92,0,0,1,.17,25c-.42-.42,0-.95.53-.63A44.77,44.77,0,0,0,23,30.24a45,45,0,0,0,17-3.48C40.65,26.33,41.39,27.18,40.54,27.81Z" fill="#fff" fill-rule="evenodd"/><path d="M42.55,25.49c-.63-.85-4.12-.43-5.7-.21-.53.1-.53-.32-.11-.64,2.85-2,7.4-1.37,7.93-.74s-.11,5.29-2.75,7.51c-.42.31-.74.21-.64-.32C41.92,29.61,43.19,26.23,42.55,25.49Z" fill="#fff" fill-rule="evenodd"/><g style="isolation:isolate"><path d="M57.58,30a.24.24,0,0,1-.24-.18l-2.05-6a.92.92,0,0,1,0-.2c0-.07,0-.11.16-.11h.41a.21.21,0,0,1,.22.17l1.76,5.45,1.55-5.44a.25.25,0,0,1,.25-.18h.47a.25.25,0,0,1,.25.18l1.54,5.48,1.8-5.49a.21.21,0,0,1,.22-.17h.39c.1,0,.15,0,.15.11a.92.92,0,0,1,0,.2l-2.1,6A.24.24,0,0,1,62,30h-.43a.24.24,0,0,1-.24-.18l-1.56-5.47-1.54,5.47A.24.24,0,0,1,58,30Z" fill="#fff"/><path d="M68.35,30.23A2.93,2.93,0,0,1,66,29.36a3.8,3.8,0,0,1-.77-2.58,3.68,3.68,0,0,1,.78-2.51,2.72,2.72,0,0,1,2.18-.89A2.33,2.33,0,0,1,70,24,2.71,2.71,0,0,1,70.65,26a4.73,4.73,0,0,1-.05.77.21.21,0,0,1-.22.19H66a3,3,0,0,0,.59,2,2.27,2.27,0,0,0,1.79.64,5,5,0,0,0,1.76-.32,1,1,0,0,1,.23-.07.14.14,0,0,1,.09,0,.21.21,0,0,1,0,.11v.19a.27.27,0,0,1-.14.27A4.75,4.75,0,0,1,68.35,30.23Zm1.58-3.9c0-.12,0-.26,0-.42a2,2,0,0,0-.45-1.4A1.72,1.72,0,0,0,68.17,24c-1.36,0-2.08.77-2.15,2.3Z" fill="#fff"/><path d="M75.16,30.18A3.19,3.19,0,0,1,73,29.29l0,.55a.2.2,0,0,1-.22.2h-.26c-.13,0-.19-.07-.19-.2V20.71a.17.17,0,0,1,.19-.19h.35a.17.17,0,0,1,.19.19v3.55a4.61,4.61,0,0,1,1.12-.67,3.3,3.3,0,0,1,1.16-.21,2.36,2.36,0,0,1,2,.89A3.78,3.78,0,0,1,78,26.72a3.89,3.89,0,0,1-.76,2.53A2.48,2.48,0,0,1,75.16,30.18Zm-.08-.67a1.88,1.88,0,0,0,1.59-.69,3.28,3.28,0,0,0,.53-2.05Q77.2,24,75.13,24a3,3,0,0,0-1.06.2,4.32,4.32,0,0,0-1.07.63v3.76a3.47,3.47,0,0,0,1,.67A2.66,2.66,0,0,0,75.08,29.51Z" fill="#fff"/><path d="M84.64,30.23a5.89,5.89,0,0,1-1-.1,5,5,0,0,1-.92-.29.25.25,0,0,1-.15-.25v-.22c0-.11,0-.16.14-.16l.12,0,.37.11a5.08,5.08,0,0,0,1.52.22,1.92,1.92,0,0,0,1.19-.31,1.08,1.08,0,0,0,.42-.92.79.79,0,0,0-.26-.59,2.26,2.26,0,0,0-.84-.47L84,26.85a1.78,1.78,0,0,1-1.37-1.69,1.61,1.61,0,0,1,.59-1.29,2.38,2.38,0,0,1,1.57-.49,4.48,4.48,0,0,1,1.68.32.25.25,0,0,1,.16.25v.2c0,.11,0,.16-.15.16a1.6,1.6,0,0,1-.32-.06A5.35,5.35,0,0,0,84.78,24a1.7,1.7,0,0,0-1.06.28,1,1,0,0,0-.36.81.93.93,0,0,0,.25.68,3.3,3.3,0,0,0,1,.52l1,.39a2.31,2.31,0,0,1,1,.66,1.44,1.44,0,0,1,.33,1,1.68,1.68,0,0,1-.63,1.38A2.7,2.7,0,0,1,84.64,30.23Z" fill="#fff"/><path d="M91.16,30.23a2.94,2.94,0,0,1-2.31-.87,3.8,3.8,0,0,1-.77-2.58,3.68,3.68,0,0,1,.78-2.51A2.73,2.73,0,0,1,91,23.38a2.33,2.33,0,0,1,1.79.66A2.71,2.71,0,0,1,93.46,26a4.73,4.73,0,0,1,0,.77.21.21,0,0,1-.22.19H88.83a3,3,0,0,0,.59,2,2.29,2.29,0,0,0,1.79.64A5,5,0,0,0,93,29.24a1,1,0,0,1,.23-.07.14.14,0,0,1,.09,0,.15.15,0,0,1,0,.11v.19a.27.27,0,0,1-.14.27A4.75,4.75,0,0,1,91.16,30.23Zm1.58-3.9c0-.12,0-.26,0-.42a2,2,0,0,0-.45-1.4A1.72,1.72,0,0,0,91,24c-1.36,0-2.07.77-2.15,2.3Z" fill="#fff"/><path d="M95.27,30c-.13,0-.19-.07-.19-.2V23.76a.17.17,0,0,1,.19-.19h.25a.18.18,0,0,1,.21.19l.07.75a3.09,3.09,0,0,1,1-.77,2.39,2.39,0,0,1,1.06-.22h.33a.18.18,0,0,1,.19.21v.32a.16.16,0,0,1-.14.14h-.46a2.52,2.52,0,0,0-1,.21,3,3,0,0,0-.88.71v4.73c0,.13-.06.2-.19.2Z" fill="#fff"/><path d="M101.79,30a.25.25,0,0,1-.24-.18l-2.42-6a.45.45,0,0,1,0-.17c0-.1,0-.14.15-.14h.41a.21.21,0,0,1,.22.17L102,29.28l2.16-5.54a.21.21,0,0,1,.22-.17h.39c.1,0,.15,0,.15.14a.82.82,0,0,1,0,.17l-2.42,6a.25.25,0,0,1-.24.18Z" fill="#fff"/><path d="M106.56,22.18a.56.56,0,0,1-.41-.15.64.64,0,0,1-.14-.42.6.6,0,0,1,.14-.41.64.64,0,0,1,.82,0,.6.6,0,0,1,.14.41A.64.64,0,0,1,107,22,.56.56,0,0,1,106.56,22.18ZM106.38,30c-.13,0-.19-.07-.19-.2V23.76a.17.17,0,0,1,.19-.19h.35a.17.17,0,0,1,.19.19v6.08c0,.13-.06.2-.19.2Z" fill="#fff"/><path d="M111.68,30.18a2.91,2.91,0,0,1-2.27-.86,3.66,3.66,0,0,1-.77-2.51,3.66,3.66,0,0,1,.79-2.52,2.93,2.93,0,0,1,2.27-.86,3.76,3.76,0,0,1,1.35.24c.11,0,.16.13.16.27v.18c0,.11,0,.17-.16.17l-.09,0-.19,0a4,4,0,0,0-1-.13,2.28,2.28,0,0,0-1.77.62,3,3,0,0,0-.54,2v.15a3,3,0,0,0,.55,2,2.21,2.21,0,0,0,1.74.64,4.49,4.49,0,0,0,1.12-.17l.19,0,.1,0a.15.15,0,0,1,.16.17v.18a.26.26,0,0,1-.15.27A3.7,3.7,0,0,1,111.68,30.18Z" fill="#fff"/><path d="M117.26,30.23a2.91,2.91,0,0,1-2.3-.87,3.75,3.75,0,0,1-.77-2.58,3.68,3.68,0,0,1,.77-2.51,2.73,2.73,0,0,1,2.18-.89,2.37,2.37,0,0,1,1.8.66,2.75,2.75,0,0,1,.62,1.92,4.73,4.73,0,0,1,0,.77.21.21,0,0,1-.22.19h-4.36a3,3,0,0,0,.59,2,2.29,2.29,0,0,0,1.79.64,5,5,0,0,0,1.76-.32,1,1,0,0,1,.23-.07.11.11,0,0,1,.09,0,.15.15,0,0,1,0,.11v.19a.27.27,0,0,1-.14.27A4.71,4.71,0,0,1,117.26,30.23Zm1.58-3.9c0-.12,0-.26,0-.42a2,2,0,0,0-.45-1.4,1.72,1.72,0,0,0-1.32-.48c-1.36,0-2.07.77-2.15,2.3Z" fill="#fff"/><path d="M122.81,30.23a5.87,5.87,0,0,1-1-.1,4.73,4.73,0,0,1-.92-.29.25.25,0,0,1-.15-.25v-.22c0-.11,0-.16.14-.16l.12,0,.37.11a5,5,0,0,0,1.52.22,1.92,1.92,0,0,0,1.19-.31,1.08,1.08,0,0,0,.41-.92.78.78,0,0,0-.25-.59,2.45,2.45,0,0,0-.84-.47l-1.17-.43a1.79,1.79,0,0,1-1.38-1.69,1.59,1.59,0,0,1,.6-1.29,2.37,2.37,0,0,1,1.56-.49,4.49,4.49,0,0,1,1.69.32.25.25,0,0,1,.15.25v.2c0,.11,0,.16-.14.16a1.48,1.48,0,0,1-.32-.06A5.35,5.35,0,0,0,123,24a1.68,1.68,0,0,0-1.06.28,1,1,0,0,0-.36.81.89.89,0,0,0,.25.68,3.35,3.35,0,0,0,1,.52l1,.39a2.4,2.4,0,0,1,1,.66,1.44,1.44,0,0,1,.33,1,1.66,1.66,0,0,1-.64,1.38A2.68,2.68,0,0,1,122.81,30.23Z" fill="#fff"/></g><g style="isolation:isolate"><path d="M58.31,18.66A3.14,3.14,0,0,1,56,17.84a2.94,2.94,0,0,1-.84-2.2,3,3,0,0,1,1-2.39,4.25,4.25,0,0,1,2.82-.87,10.2,10.2,0,0,1,3,.48V11.11a2.35,2.35,0,0,0-.6-1.81,2.9,2.9,0,0,0-2-.56,10.16,10.16,0,0,0-3,.52.84.84,0,0,1-.31.07q-.21,0-.21-.27V8.72A.42.42,0,0,1,56,8.46a.46.46,0,0,1,.2-.15,9.42,9.42,0,0,1,3.47-.65,4.09,4.09,0,0,1,2.72.77,3,3,0,0,1,.88,2.33v7.36a.28.28,0,0,1-.31.31h-.44a.29.29,0,0,1-.33-.31l-.08-.9A5.91,5.91,0,0,1,58.31,18.66Zm.17-1.08a5.06,5.06,0,0,0,1.71-.33,9.16,9.16,0,0,0,1.84-.9v-2.6a10.26,10.26,0,0,0-2.7-.37c-1.94,0-2.91.75-2.91,2.24a2,2,0,0,0,.52,1.46A2.16,2.16,0,0,0,58.48,17.58Z" fill="#fff"/><path d="M66.73,18.43a.28.28,0,0,1-.31-.31V8.29A.27.27,0,0,1,66.73,8h.42c.22,0,.34.1.35.31l.08.83a7.63,7.63,0,0,1,2-1.08,5.8,5.8,0,0,1,2-.38,2.57,2.57,0,0,1,2.62,1.6,7.84,7.84,0,0,1,2.08-1.18,6.07,6.07,0,0,1,2.18-.42,2.82,2.82,0,0,1,2.18.81,3.35,3.35,0,0,1,.75,2.35v7.3a.28.28,0,0,1-.31.31h-.56a.28.28,0,0,1-.31-.31v-6.8a3.19,3.19,0,0,0-.48-2,1.82,1.82,0,0,0-1.52-.62,6.27,6.27,0,0,0-3.76,1.31,8.31,8.31,0,0,1,.06,1v7.09a.28.28,0,0,1-.31.31h-.56a.28.28,0,0,1-.31-.31v-6.8a3.19,3.19,0,0,0-.48-2,1.8,1.8,0,0,0-1.52-.62A6.29,6.29,0,0,0,67.6,10v8.11a.28.28,0,0,1-.31.31Z" fill="#fff"/><path d="M87,18.66a3.14,3.14,0,0,1-2.27-.82,2.94,2.94,0,0,1-.84-2.2,3,3,0,0,1,1-2.39,4.29,4.29,0,0,1,2.83-.87,10.2,10.2,0,0,1,3,.48V11.11a2.35,2.35,0,0,0-.6-1.81,2.91,2.91,0,0,0-2-.56,10.15,10.15,0,0,0-3,.52.84.84,0,0,1-.31.07q-.21,0-.21-.27V8.72a.5.5,0,0,1,.06-.26.49.49,0,0,1,.21-.15,9.42,9.42,0,0,1,3.47-.65A4,4,0,0,1,91,8.43a2.94,2.94,0,0,1,.89,2.33v7.36a.28.28,0,0,1-.31.31h-.44a.29.29,0,0,1-.33-.31l-.09-.9A5.89,5.89,0,0,1,87,18.66Zm.17-1.08a5,5,0,0,0,1.7-.33,9,9,0,0,0,1.85-.9v-2.6a10.37,10.37,0,0,0-2.7-.37c-1.94,0-2.91.75-2.91,2.24a1.93,1.93,0,0,0,.52,1.46A2.16,2.16,0,0,0,87.18,17.58Z" fill="#fff"/><path d="M94.64,18.43a.28.28,0,0,1-.31-.31v-.44a.85.85,0,0,1,0-.29,1.41,1.41,0,0,1,.21-.33l6.31-8h-6a.27.27,0,0,1-.31-.31V8.29A.27.27,0,0,1,94.85,8h7.06a.27.27,0,0,1,.31.31v.43a1,1,0,0,1-.27.65l-6.33,8H102a.28.28,0,0,1,.32.31v.42a.28.28,0,0,1-.32.31Z" fill="#fff"/><path d="M108.79,18.74a4.43,4.43,0,0,1-3.55-1.47A6,6,0,0,1,104,13.19a6,6,0,0,1,1.27-4.07,5,5,0,0,1,7.1,0,6,6,0,0,1,1.27,4.07,6,6,0,0,1-1.27,4.08A4.43,4.43,0,0,1,108.79,18.74Zm0-1.08q3.6,0,3.6-4.47c0-3-1.2-4.45-3.6-4.45s-3.59,1.49-3.59,4.45S106.39,17.66,108.79,17.66Z" fill="#fff"/><path d="M116.62,18.43a.28.28,0,0,1-.31-.31V8.29a.28.28,0,0,1,.31-.31H117c.22,0,.34.1.35.31l.09.89a8.59,8.59,0,0,1,2.14-1.12,6.63,6.63,0,0,1,2.18-.4,3.17,3.17,0,0,1,2.32.8,3.22,3.22,0,0,1,.8,2.36v7.3a.28.28,0,0,1-.32.31H124a.28.28,0,0,1-.31-.31v-6.8a3,3,0,0,0-.52-2,2.05,2.05,0,0,0-1.66-.62,7.19,7.19,0,0,0-4,1.33v8.05a.28.28,0,0,1-.31.31Z" fill="#fff"/></g></svg>