<?xml version="1.0" encoding="utf-8"?>
<!-- Generator: Adobe Illustrator 21.0.2, SVG Export Plug-In . SVG Version: 6.00 Build 0)  -->
<svg version="1.1" id="Layer_1" xmlns="http://www.w3.org/2000/svg" xmlns:xlink="http://www.w3.org/1999/xlink" x="0px" y="0px"
	 viewBox="0 0 274.944 274.944" style="enable-background:new 0 0 274.944 274.944;" xml:space="preserve">
<style type="text/css">
	.st0{fill:#E2E2E2;}
	.st1{fill:#F4A932;}
</style>
<circle class="st0" cx="137.472" cy="137.472" r="137.472"/>
<path id="polygon287" class="st1" d="M68.64236,145.95634l-14.18411,6.0358l12.97695,5.43221l15.08949-5.43221L68.64236,145.95634z
	 M47.51708,153.50108l-0.60358,27.16106l20.52169,9.0537V161.6494L47.51708,153.50108z M89.76762,153.50108l-18.71095,6.94116
	v26.55748l18.71095-7.54474V153.50108z"/>
<path id="polygon311" class="st1" d="M112.10005,69l-14.18411,6.03579l12.97695,5.43221l15.08948-5.43221L112.10005,69z
	 M92.48373,77.14832v27.16106l17.50379,5.13042l0.60358-24.74675L92.48373,77.14832z M131.71638,78.65726l-16.59843,6.94116
	v26.55749l16.59843-7.54475V78.65726z"/>
<path id="use3387" class="st1" d="M45.70634,107.32728l-14.18411,6.03579l12.97695,5.43221l15.08948-5.43221L45.70634,107.32728z
	 M24.58107,114.87202l-0.60358,27.16106l20.52169,9.05368v-28.06642L24.58107,114.87202z M66.83161,114.87202l-18.71095,6.94116
	v26.55747l18.71095-7.54474V114.87202z"/>
<path id="use3389" class="st1" d="M90.97478,106.12012l-14.18411,6.0358l12.97695,5.43221l15.08948-5.43221L90.97478,106.12012z
	 M69.84951,113.66486l-0.60358,27.16106l20.52169,9.0537v-28.06643L69.84951,113.66486z M112.10005,113.66486l-18.71095,7.24296
	v26.55747l18.71095-7.54474V113.66486z"/>
<path id="use3391" class="st1" d="M156.16133,69l-14.18411,6.03579l12.97694,5.43221l15.08948-5.43221L156.16133,69z
	 M135.03606,76.54474l-0.60358,27.16106l20.52168,9.05369V84.69305L135.03606,76.54474z M177.28661,76.54474l-18.71097,6.94116
	v26.55748l18.71097-7.54474V76.54474z"/>
<g>
	<path d="M159.48102,181.5675h-9.05368l-18.40916-28.36821h-8.14832v28.36821h-7.24294v-62.47044h17.5038
		c6.03578,0,10.56264,1.50895,14.18411,4.22506c3.31967,3.01789,5.13042,6.94115,5.13042,12.07158
		c0,3.92326-1.20715,7.24295-3.62148,10.26085c-2.41431,3.0179-6.03578,4.82863-10.26085,6.03578L159.48102,181.5675z
		 M124.17164,146.86171h9.05369c3.92326,0,6.94116-0.90536,9.35547-3.0179c2.41432-2.11253,3.62148-4.82863,3.62148-7.84653
		c0-6.94116-4.22505-10.56264-12.67516-10.56264h-9.35548V146.86171z"/>
	<path d="M164.00786,119.09707h12.37338c8.14832,0,14.78769,2.71611,19.61632,8.45011
		c4.82863,5.43221,7.24295,13.27873,7.24295,22.936c0,9.95906-2.41431,17.5038-7.54474,22.936
		c-5.13042,5.43221-11.468,8.14832-19.31453,8.14832h-12.67517v-62.47044H164.00786z M171.25081,175.22993h5.13043
		c6.03578,0,10.56262-2.11253,14.18411-6.63937c3.62148-4.52684,5.13042-10.56264,5.13042-18.10738
		c0-7.84653-1.81073-13.88232-5.13042-18.10738c-3.31969-4.52684-8.14833-6.63937-14.18411-6.63937h-5.13043V175.22993z"/>
	<path d="M242.47316,126.03823c-3.62148-1.20716-7.24295-1.81074-10.56264-1.81074c-3.62146,0-6.94118,0.90536-9.35547,2.7161
		c-2.41434,1.81074-3.62148,4.22506-3.62148,7.24294c0,3.62149,3.0179,6.94116,9.35548,9.95906
		c4.52684,2.11253,7.54474,3.62148,9.05368,4.52684s3.0179,1.81075,4.52684,3.31969c1.50896,1.50896,2.71611,3.0179,3.62148,5.13043
		c0.90536,1.81073,1.50894,4.22505,1.50894,6.63937c0,6.0358-2.11252,10.86443-6.0358,14.1841
		c-4.22505,3.31969-8.75189,5.13043-14.4859,5.13043c-5.43222,0-9.95906-1.20717-14.18411-3.31969l1.50894-6.33757
		c4.82864,2.11253,8.75189,3.31967,12.37338,3.31967c4.22505,0,7.54474-1.20715,9.95906-3.31967
		c2.41434-2.11252,3.62148-5.13043,3.62148-8.75189c0-2.71611-0.90538-5.13043-2.41434-6.94116
		c-1.50894-1.81075-4.52684-3.92326-9.05368-6.0358s-7.24295-3.62148-8.75191-4.22505
		c-1.20715-0.60358-2.71611-1.81073-3.92326-3.0179c-1.20714-1.20715-2.41431-2.71609-3.01788-4.52684
		c-0.60359-1.81075-1.20717-3.31969-1.20717-5.43221c0-5.13043,1.81073-9.0537,5.43221-12.07159
		c3.62148-3.0179,8.45012-4.22505,14.18411-4.22505c4.22505,0,8.1483,0.60358,12.37337,1.81074L242.47316,126.03823z"/>
</g>
</svg>
